<svg width="138" height="46" viewBox="0 0 138 46" fill="none" xmlns="http://www.w3.org/2000/svg">
<path d="M8.73063 0.664017H122.965C124.274 0.664017 125.416 1.18737 126.058 2.23409L137.453 20.7181C138.333 22.1693 138.167 23.9297 136.93 25.3808L120.872 43.8648C119.992 44.864 118.85 45.4587 117.565 45.4587H3.63978C1.37983 45.4587 -0.237825 43.6983 0.0238535 41.4859L4.25829 4.63678C4.51997 2.37682 6.47067 0.664017 8.70684 0.664017" fill="#0CBBBC"/>
<path d="M76.8861 32.351L78.6465 18.2917C79.8359 17.4828 81.1919 16.8405 82.3338 16.8405C83.8325 16.8405 84.57 17.9586 84.3321 19.8855L82.7858 32.3748H88.2097L89.8987 18.7437L89.9463 18.363C91.1357 17.5542 92.5155 16.8643 93.6811 16.8643C95.1798 16.8643 95.9173 17.9824 95.6794 19.9093L94.1331 32.3985H99.557L101.246 18.7674C101.698 14.9612 99.7473 12.6537 96.2504 12.6537C93.8239 12.6537 91.2547 14.0334 89.5419 15.2943C88.8044 13.6052 87.2105 12.6537 84.9268 12.6537C82.643 12.6537 80.4782 13.7718 78.7416 14.9136L78.9795 13.177H73.9125L71.486 32.3748H76.9099L76.8861 32.351ZM108.906 20.9798C109.453 18.4344 111.285 16.9595 113.545 16.9595C115.805 16.9595 117.042 18.2203 117.042 20.2662C117.042 20.504 117.042 20.7657 117.018 21.0036H108.906V20.9798ZM103.221 23.549C103.149 28.3544 106.646 32.803 113.783 32.803C116.328 32.803 118.469 32.3034 120.396 31.1139L120.777 26.594C119.207 27.5456 116.828 28.2117 114.758 28.2117C112.022 28.2117 109.572 27.0222 108.882 24.2627H122.157C122.347 23.7631 122.513 22.5737 122.513 21.4318C122.513 16.3648 119.706 12.6775 113.949 12.6775C108.192 12.6775 103.316 16.1031 103.244 23.5728M37.3012 26.7368C37.3012 24.6671 39.7277 23.8821 42.2255 23.8821H44.771L44.3903 26.9984C43.3198 27.8548 41.3929 28.735 39.7753 28.735C38.3241 28.735 37.325 27.9262 37.325 26.7368M31.8773 27.165C31.8297 30.2813 34.3752 32.803 38.2528 32.803C40.9885 32.803 42.9868 31.6373 44.1287 30.3765L43.8908 32.3272H49.1243L50.3852 21.9314C51.0037 16.793 49.3147 12.6061 42.7013 12.6061C40.0132 12.6061 36.7541 13.2246 34.9937 14.3665L34.4465 18.6723C35.8739 17.911 38.6334 16.9595 41.155 16.9595C44.2 16.9595 45.2705 18.482 45.1516 20.0758H41.9163C37.2298 20.0758 31.9011 21.8838 31.8535 27.1412M16.8665 27.6645L18.0559 18.2203C19.2216 17.2925 20.5062 16.9119 21.6718 16.9595C23.9794 16.9833 25.2402 18.8388 25.2402 21.7173C25.2402 25.4522 23.2895 28.6399 19.9828 28.6399C18.9361 28.6399 17.7467 28.3068 16.8665 27.6883M10.158 38.6788H15.5343L16.4145 31.4232C17.2709 32.0655 18.8409 32.803 20.8392 32.803C27.0719 32.803 30.8544 27.3077 30.8544 21.3129C30.8544 16.1982 28.4279 12.6299 23.908 12.6299C21.767 12.6299 19.7925 13.3198 18.2938 14.5568L18.4841 13.1295H13.2743L10.158 38.6551V38.6788ZM66.6568 13.1532L60.8285 26.4275L57.7835 13.1532H51.7887L57.1174 32.3985L54.0011 38.7026H59.9008L72.4613 13.177H66.633L66.6568 13.1532Z" fill="white"/>
</svg>
