<svg width="145" height="139" viewBox="0 0 145 139" fill="none" xmlns="http://www.w3.org/2000/svg">
<path d="M10.6126 52.9345C7.93701 45.6928 16.0471 39.2303 22.5086 43.4552L97.4057 92.4264C104.069 96.7833 100.984 107.139 93.0226 107.139H36.2188C32.8659 107.139 29.8679 105.051 28.7059 101.906L10.6126 52.9345Z" fill="url(#paint0_linear_95_502)"/>
<path d="M134.065 52.8362C136.769 45.6121 128.7 39.1167 122.22 43.3003L46.1621 92.401C39.453 96.7322 42.5204 107.139 50.5061 107.139H108.19C111.531 107.139 114.521 105.066 115.692 101.937L134.065 52.8362Z" fill="url(#paint1_linear_95_502)"/>
<path d="M65.1692 29.9189C68.0902 23.9063 76.6565 23.9063 79.5775 29.9188L111.868 96.3844C114.452 101.704 110.578 107.894 104.664 107.894H40.0831C34.169 107.894 30.2946 101.704 32.879 96.3844L65.1692 29.9189Z" fill="url(#paint2_linear_95_502)"/>
<mask id="mask0_95_502" style="mask-type:alpha" maskUnits="userSpaceOnUse" x="32" y="25" width="81" height="83">
<path d="M65.1692 29.9189C68.0902 23.9063 76.6565 23.9063 79.5775 29.9188L111.868 96.3844C114.452 101.704 110.578 107.894 104.664 107.894H40.0831C34.169 107.894 30.2946 101.704 32.879 96.3844L65.1692 29.9189Z" fill="url(#paint3_linear_95_502)"/>
</mask>
<g mask="url(#mask0_95_502)">
<g filter="url(#filter0_f_95_502)">
<ellipse cx="98.7058" cy="75.908" rx="47.5614" ry="12.8192" transform="rotate(78.3034 98.7058 75.908)" fill="#FFF5D2" fill-opacity="0.8"/>
</g>
</g>
<ellipse cx="72.3742" cy="8.29949" rx="8.29952" ry="8.29952" fill="url(#paint4_linear_95_502)"/>
<ellipse cx="6.79051" cy="32.4436" rx="6.79051" ry="6.79051" fill="url(#paint5_linear_95_502)"/>
<ellipse cx="137.609" cy="32.4436" rx="6.79051" ry="6.79051" fill="url(#paint6_linear_95_502)"/>
<rect x="30.3062" y="114.44" width="82.5465" height="11.2563" rx="5.62817" fill="url(#paint7_linear_95_502)"/>
<defs>
<filter id="filter0_f_95_502" x="66.8576" y="13.2418" width="63.6962" height="125.332" filterUnits="userSpaceOnUse" color-interpolation-filters="sRGB">
<feFlood flood-opacity="0" result="BackgroundImageFix"/>
<feBlend mode="normal" in="SourceGraphic" in2="BackgroundImageFix" result="shape"/>
<feGaussianBlur stdDeviation="8.00932" result="effect1_foregroundBlur_95_502"/>
</filter>
<linearGradient id="paint0_linear_95_502" x1="9.34408" y1="52.0606" x2="53.3954" y2="84.0979" gradientUnits="userSpaceOnUse">
<stop stop-color="#FFE176"/>
<stop offset="1" stop-color="#FFA800"/>
</linearGradient>
<linearGradient id="paint1_linear_95_502" x1="130.819" y1="42.7164" x2="104.121" y2="90.7723" gradientUnits="userSpaceOnUse">
<stop stop-color="#FFE483"/>
<stop offset="1" stop-color="#F29100"/>
</linearGradient>
<linearGradient id="paint2_linear_95_502" x1="49.3085" y1="62.8623" x2="96.0972" y2="62.8623" gradientUnits="userSpaceOnUse">
<stop offset="0.49738" stop-color="#FCE77B"/>
<stop offset="0.49738" stop-color="#FFCC1D"/>
</linearGradient>
<linearGradient id="paint3_linear_95_502" x1="49.3085" y1="62.8623" x2="96.0972" y2="62.8623" gradientUnits="userSpaceOnUse">
<stop offset="0.49738" stop-color="#FCE77B"/>
<stop offset="0.49738" stop-color="#FFCC1D"/>
</linearGradient>
<linearGradient id="paint4_linear_95_502" x1="72.3742" y1="-3.05176e-05" x2="72.3742" y2="16.599" gradientUnits="userSpaceOnUse">
<stop stop-color="#FFCD1D"/>
<stop offset="1" stop-color="#FF971D"/>
</linearGradient>
<linearGradient id="paint5_linear_95_502" x1="6.79051" y1="25.6531" x2="6.79051" y2="39.2341" gradientUnits="userSpaceOnUse">
<stop stop-color="#FFCD1D"/>
<stop offset="1" stop-color="#FF971D"/>
</linearGradient>
<linearGradient id="paint6_linear_95_502" x1="137.609" y1="25.6531" x2="137.609" y2="39.2341" gradientUnits="userSpaceOnUse">
<stop stop-color="#FFCD1D"/>
<stop offset="1" stop-color="#FF971D"/>
</linearGradient>
<linearGradient id="paint7_linear_95_502" x1="31.2442" y1="120.068" x2="113.791" y2="120.068" gradientUnits="userSpaceOnUse">
<stop stop-color="#FDE07C"/>
<stop offset="1" stop-color="#FDE07C" stop-opacity="0"/>
</linearGradient>
</defs>
</svg>
